<?xml version="1.0" standalone="no"?><!DOCTYPE svg PUBLIC "-//W3C//DTD SVG 1.1//EN" "http://www.w3.org/Graphics/SVG/1.1/DTD/svg11.dtd"><svg t="1526984635169" class="icon" style="" viewBox="0 0 1024 1024" version="1.1" xmlns="http://www.w3.org/2000/svg" p-id="3635" data-spm-anchor-id="a313x.7781069.0.i12" xmlns:xlink="http://www.w3.org/1999/xlink" width="64" height="64"><defs><style type="text/css"></style></defs><path d="M688 496H336a32 32 0 0 1 0-64h352a32 32 0 0 1 0 64zM688 640H336a32 32 0 0 1 0-64h352a32 32 0 0 1 0 64zM688 784H336a32 32 0 0 1 0-64h352a32 32 0 0 1 0 64z" p-id="3636" data-spm-anchor-id="a313x.7781069.0.i13" fill="#cdcdcd" class="selected"></path><path d="M768 968H256a96 96 0 0 1-96-96V152A96 96 0 0 1 256 56h368a32 32 0 0 1 0 64H256a32 32 0 0 0-32 32v720a32 32 0 0 0 32 32h512a32 32 0 0 0 32-32V276.48a32 32 0 0 0-9.36-22.64L777.36 240a32 32 0 1 1 45.28-45.28l13.28 13.84a95.36 95.36 0 0 1 28.08 67.92V872a96 96 0 0 1-96 96z" p-id="3637" fill="#cdcdcd" data-spm-anchor-id="a313x.7781069.0.i15" class="selected"></path><path d="M720 144m-32 0a32 32 0 1 0 64 0 32 32 0 1 0-64 0Z" p-id="3638" fill="#ffffff"></path></svg>